<svg width="72" height="72" fill="none" xmlns="http://www.w3.org/2000/svg"><circle cx="36" cy="36" r="36" fill="url(#paint0_linear)"/><path fill-rule="evenodd" clip-rule="evenodd" d="M49.316 23.059v-3.727A3.336 3.336 0 0045.984 16H19.332A3.336 3.336 0 0016 19.332V33.99a3.325 3.325 0 002.988 3.298l2.504 6.501A3.332 3.332 0 0025.8 45.7l15.64-6.025a9.632 9.632 0 00.83 8.553l.384.612v6.472c0 .369.298.667.666.667h11.993a.666.666 0 00.667-.667V33.318a8.72 8.72 0 00-2.553-6.141l-4.11-4.118zm0 3.985l2.022 5.25a1.999 1.999 0 01-1.148 2.583l-1.156.446c.185-.42.28-.874.282-1.333v-6.946zm-31.983-7.712V33.99a2 2 0 001.999 2h19.974l-2.602-2.843a3.555 3.555 0 015.13-4.915l6.104 6.104c.025-.114.04-.23.045-.346V23.582l-.006-.015h.006v-4.235a2 2 0 00-1.999-2H19.332a2 2 0 00-2 2zm8.536 17.99l-4.738 1.824-.701-1.824h5.439zm-3.133 5.988a1.999 1.999 0 002.584 1.147l16.073-6.195-.866-.944H29.565v.004l-7.953 3.065 1.124 2.923zm21.25 11.336v-5.33h10.66v5.33h-10.66zm-.297-6.663h10.957V33.318a7.38 7.38 0 00-2.162-5.198l-2.159-2.163 2.255 5.856a3.332 3.332 0 01-1.91 4.305l-.684.267 2.466 2.465-.942.942-10.618-10.615a2.222 2.222 0 00-3.209 3.073l5.46 5.957c.196.213.232.53.088.78a8.309 8.309 0 00.169 8.534l.289.462zm-18.36-24.387c0 .957-.776 1.732-1.733 1.732h-3.198a1.732 1.732 0 01-1.733-1.732v-3.198c0-.957.776-1.733 1.733-1.733h3.198c.957 0 1.732.776 1.732 1.733v3.198zm-5.331-.933v.933c0 .22.179.4.4.4h3.198a.4.4 0 00.4-.4v-.933h-1.333v-1.332h1.333v-.933a.4.4 0 00-.4-.4h-3.198a.4.4 0 00-.4.4v.933h1.332v1.332h-1.332zm1.999 4.664h-2.665v1.333h2.665v-1.333zm-2.665 3.998h2.665v1.333h-2.665v-1.333zm14.658 0h-2.665v1.333h2.665v-1.333zm-10.66-3.998h2.665v1.333h-2.666v-1.333zm6.663 0h-2.666v1.333h2.665v-1.333zm1.332 0h2.665v1.333h-2.665v-1.333zm13.993-7.995h-1.333v1.998h1.333v-1.998zm-3.998 0h1.333v1.998H41.32v-1.998zm-1.333 0h-1.332v1.998h1.332v-1.998zm-3.998 0h1.333v1.998h-1.333v-1.998zM46.65 51.98v-1.333h-1.332v1.333h1.332z" fill="#fff"/><defs><linearGradient id="paint0_linear" x1="-35.849" y1="35.849" x2="35.849" y2="107.547" gradientUnits="userSpaceOnUse"><stop stop-color="#33D35E"/><stop offset="1" stop-color="#2AB6D9"/></linearGradient></defs></svg>